M48
; DRILL file {KiCad 9.0.6} date 2025-12-11T22:06:33+0100
; FORMAT={-:-/ absolute / metric / decimal}
; #@! TF.CreationDate,2025-12-11T22:06:33+01:00
; #@! TF.GenerationSoftware,Kicad,Pcbnew,9.0.6
; #@! TF.FileFunction,Plated,1,2,PTH
FMAT,2
METRIC
; #@! TA.AperFunction,Plated,PTH,ComponentDrill
T1C0.889
; #@! TA.AperFunction,Plated,PTH,ComponentDrill
T2C1.000
; #@! TA.AperFunction,Plated,PTH,ComponentDrill
T3C1.500
%
G90
G05
T1
X80.535Y-106.4
X80.535Y-108.94
X80.535Y-111.48
X80.535Y-114.02
X80.535Y-116.56
X80.535Y-119.1
X80.535Y-121.64
X95.775Y-106.4
X95.775Y-108.94
X95.775Y-111.48
X95.775Y-114.02
X95.775Y-116.56
X95.775Y-119.1
X95.775Y-121.64
T2
X80.3Y-132.0
X80.3Y-134.5
X80.3Y-137.0
X94.8Y-132.0
X94.8Y-137.0
T3
X103.346Y-111.76
X103.346Y-130.81
X109.696Y-109.22
X109.696Y-128.27
X122.396Y-111.76
X122.396Y-130.81
X128.746Y-109.22
X128.746Y-128.27
X141.446Y-111.76
X141.446Y-130.81
X147.796Y-109.22
X147.796Y-128.27
T3
G00X87.15Y-128.9
M15
G01X88.45Y-128.9
M16
G05
G00X87.15Y-140.1
M15
G01X88.45Y-140.1
M16
G05
M30
